<?xml version="1.0" standalone="no"?><!DOCTYPE svg PUBLIC "-//W3C//DTD SVG 1.1//EN"
  "http://www.w3.org/Graphics/SVG/1.1/DTD/svg11.dtd">
<svg t="1725593916347" class="icon" viewBox="0 0 1077 1024" version="1.1" xmlns="http://www.w3.org/2000/svg"
     p-id="23789" xmlns:xlink="http://www.w3.org/1999/xlink" width="210.3515625" height="200">
  <path
    d="M808.421053 761.748211V108.651789 107.789474a53.894737 53.894737 0 0 0-54.056421-53.894737H107.358316A53.894737 53.894737 0 0 0 53.894737 108.490105v754.526316A53.894737 53.894737 0 0 0 108.328421 916.210526h647.383579a53.894737 53.894737 0 0 0 52.709053-53.032421v-101.429894zM862.315789 862.315789c0 21.935158-6.575158 42.361263-17.785263 59.392l20.426106 3.233685a48.613053 48.613053 0 0 0 54.379789-39.774316l14.282105-90.327579 78.039579-492.705684 14.066527-88.764632a48.559158 48.559158 0 0 0-40.421053-56.373895l-89.411368-14.174315-33.576422-5.389474V862.315789z m-68.823578 100.513685A107.52 107.52 0 0 1 754.526316 970.105263H107.789474a107.789474 107.789474 0 0 1-107.789474-107.789474V107.789474a107.789474 107.789474 0 0 1 107.789474-107.789474h646.736842a107.789474 107.789474 0 0 1 105.957052 88.010105l132.581053 21.018948a97.172211 97.172211 0 0 1 80.788211 111.130947L967.410526 892.011789a97.172211 97.172211 0 0 1-111.184842 80.788211l-62.787368-9.970526zM242.526316 215.578947h377.263158a26.947368 26.947368 0 1 1 0 53.894737h-377.263158a26.947368 26.947368 0 0 1 0-53.894737z m0 161.684211h377.263158a26.947368 26.947368 0 1 1 0 53.894737h-377.263158a26.947368 26.947368 0 0 1 0-53.894737z m0 161.68421h377.263158a26.947368 26.947368 0 1 1 0 53.894737h-377.263158a26.947368 26.947368 0 1 1 0-53.894737z m0 161.684211h161.68421a26.947368 26.947368 0 1 1 0 53.894737h-161.68421a26.947368 26.947368 0 1 1 0-53.894737z"
     p-id="23790"></path>
</svg>
